inDegrees=yes
name=ik_S40_A04_T02
DataType=double
version=3
OpenSimVersion=4.3-2021-08-27-4bc7ad9
endheader
time	pelvis_tilt	pelvis_list	pelvis_rotation	pelvis_tx	pelvis_ty	pelvis_tz	hip_flexion_r	hip_adduction_r	hip_rotation_r	knee_angle_r	knee_angle_r_beta	ankle_angle_r	subtalar_angle_r	mtp_angle_r	hip_flexion_l	hip_adduction_l	hip_rotation_l	knee_angle_l	knee_angle_l_beta	ankle_angle_l	subtalar_angle_l	mtp_angle_l	lumbar_extension	lumbar_bending	lumbar_rotation	arm_flex_r	arm_add_r	arm_rot_r	elbow_flex_r	pro_sup_r	wrist_flex_r	wrist_dev_r	arm_flex_l	arm_add_l	arm_rot_l	elbow_flex_l	pro_sup_l	wrist_flex_l	wrist_dev_l
13.03999999999981	-10.56297911783224	-5.772548315301666	40.79938388358835	0	0.9399999999999999	0	76.87269182924872	-14.40620110755455	-2.452740605531385	67.49784504331251	1.178059634006738	0	0	0	73.97024286587047	-5.766563269501587	-10.38076274160765	64.00072953550701	1.117023454072978	0	0	0	0	0	0	37.31137528958378	-37.31137528958378	4.865824284185175	85.33556437121143	85.13417598590502	0	0	37.31137528958378	-37.31137528958378	4.865824284185175	85.33556437121143	85.13417598588192	0	0
13.05999999999981	-9.85868061745089	-5.400262942908816	40.88710986895217	0	0.9399999999999999	0	76.23187621240542	-14.42853518042712	-2.686383395288949	67.53222850845232	1.178659738681672	0	0	0	73.35595202942048	-5.694132683704085	-10.49921318818665	64.00030766079875	1.117016090970288	0	0	0	0	0	0	37.31199896197143	-37.31199896197143	4.865845909184156	85.33551028802962	85.13415436090683	0	0	37.31199896197143	-37.31199896197143	4.865845909184156	85.33551028802962	85.13415436088373	0	0
13.07999999999981	-9.838107199601046	-5.404845192798342	40.88503440711219	0	0.9399999999999999	0	76.38196912653066	-14.5014658943633	-2.835796364428464	67.51229084807026	1.178311760862861	0	0	0	73.46534019985604	-5.63613220945265	-10.65926540398817	63.94979753480385	1.11613452296608	0	0	0	0	0	0	37.31238528162261	-37.31238528162261	4.865859319178004	85.3354767502172	85.13414095091346	0	0	37.31238528162261	-37.31238528162261	4.865859319178004	85.3354767502172	85.13414095089037	0	0
13.09999999999981	-9.101185039163733	-4.963792153000966	40.97965278383862	0	0.9399999999999999	0	75.79568436174831	-14.59060938717504	-3.188401704567934	67.61703507615475	1.180139892515395	0	0	0	72.73549570247883	-5.618564361820536	-10.62578011359269	63.94259096433071	1.116008744583547	0	0	0	0	0	0	37.31304626034201	-37.31304626034201	4.865882259791311	85.33541937673968	85.13411801030097	0	0	37.31304626034201	-37.31304626034201	4.865882259791311	85.33541937673968	85.13411801027786	0	0
13.11999999999981	-8.842733555261621	-4.844733463438438	40.96884892260834	0	0.9399999999999999	0	75.58816479545138	-14.60575884642674	-3.409034586563593	67.60097741659828	1.17985963348597	0	0	0	72.53846687714737	-5.634022939770266	-10.73216326055085	63.89483601176843	1.115175263427201	0	0	0	0	0	0	37.3135970746406	-37.3135970746406	4.865901395009531	85.33537152038875	85.13409887508341	0	0	37.3135970746406	-37.3135970746406	4.865901395009531	85.33537152038875	85.1340988750603	0	0
13.13999999999981	-8.719843462431864	-4.808385020252636	40.92338477088062	0	0.9399999999999999	0	75.54453563862079	-14.64015657414062	-3.589927862088791	67.55197195695932	1.179004326863817	0	0	0	72.53912226355071	-5.540232554329857	-10.9347722624318	63.87838121085928	1.114888072973577	0	0	0	0	0	0	37.31397158473604	-37.31397158473604	4.865914424027505	85.33533893537852	85.1340858460659	0	0	37.31397158473604	-37.31397158473604	4.865914424027505	85.33533893537852	85.13408584604281	0	0
13.15999999999981	-8.606413043309027	-4.7726919711798	40.90182433531633	0	0.9399999999999999	0	75.47290156737925	-14.67487887346002	-3.711181836166469	67.48854893424507	1.177897386295887	0	0	0	72.45375323684192	-5.544935870731002	-10.97244798285624	63.84465662084168	1.114299467838884	0	0	0	0	0	0	37.31454291949255	-37.31454291949255	4.865934346359471	85.33528911048488	85.13406592373467	0	0	37.31454291949255	-37.31454291949255	4.865934346359471	85.33528911048488	85.13406592371156	0	0
13.17999999999981	-8.534709509859935	-4.778971781624961	40.86794968718209	0	0.9399999999999999	0	75.42901365356613	-14.68700101833742	-3.760293575170765	67.45198856019479	1.177259287392948	0	0	0	72.41847437664912	-5.584798208619649	-10.94401642446898	63.809631769454	1.113688168862148	0	0	0	0	0	0	37.32269306025137	-37.32269306025137	4.866209389699731	85.33460124051138	85.13379088040409	0	0	37.32269306025137	-37.32269306025137	4.866209389699731	85.33460124051138	85.13379088038103	0	0
13.19999999999981	-8.53461819645692	-4.849348986078033	40.83079810292557	0	0.9399999999999999	0	75.48566852107034	-14.72226527635436	-3.872591277089654	67.41826081135135	1.176670627126345	0	0	0	72.46248162248618	-5.611688073249071	-10.90470697831075	63.78694988426809	1.113292295285094	0	0	0	0	0	0	37.32307272369814	-37.32307272369814	4.866222601011648	85.33456819959289	85.13377766909262	0	0	37.32307272369814	-37.32307272369814	4.866222601011648	85.33456819959289	85.13377766906956	0	0
13.21999999999981	-8.550927298478323	-4.89045051573195	40.82654682123318	0	0.9399999999999999	0	75.50210217234374	-14.75486418616234	-3.925323711377854	67.36875032550867	1.175806506134128	0	0	0	72.48752071559524	-5.620164982452411	-10.88912189410685	63.75499041433178	1.112734497307513	0	0	0	0	0	0	37.33301908185257	-37.33301908185257	4.866557189438926	85.33373141045081	85.13344308067713	0	0	37.33301908185257	-37.33301908185257	4.866557189438926	85.33373141045081	85.13344308065412	0	0
13.23999999999981	-8.638192698282442	-4.999463296836511	40.83916886489943	0	0.9399999999999999	0	75.60861117045755	-14.80533654761839	-3.950486699662759	67.34479565321328	1.175388418231337	0	0	0	72.61704203216721	-5.603237834143579	-10.83523750189768	63.73636976608882	1.112409505686818	0	0	0	0	0	0	37.33742432279213	-37.33742432279213	4.866692992243429	85.33339177630209	85.13330727787724	0	0	37.33742432279213	-37.33742432279213	4.866692992243429	85.33339177630209	85.13330727785426	0	0
13.25999999999981	-8.798524800105859	-5.155134698008564	40.86575681662639	0	0.9399999999999999	0	75.81278379636539	-14.84655573187729	-3.987550377795751	67.33932009886765	1.175292851779634	0	0	0	72.8177251841409	-5.562315730910335	-10.81757914821187	63.71402195431086	1.112019462790677	0	0	0	0	0	0	37.33795318842841	-37.33795318842841	4.866711015471206	85.33334670102073	85.13328925465012	0	0	37.33795318842841	-37.33795318842841	4.866711015471206	85.33334670102073	85.13328925462714	0	0
13.27999999999981	-9.055314107189542	-5.350913147053701	40.8828388816881	0	0.9399999999999999	0	76.08785013900487	-14.92418170149241	-4.004730055202268	67.33290465702022	1.175180881196426	0	0	0	73.12159595074766	-5.502492294657681	-10.80768625753618	63.6934396955236	1.111660234607341	0	0	0	0	0	0	37.33858264538216	-37.33858264538216	4.866732594044453	85.33329273397081	85.13326767607766	0	0	37.33858264538216	-37.33858264538216	4.866732594044453	85.33329273397081	85.13326767605469	0	0
13.29999999999981	-9.574761031981566	-5.769456923480359	40.97160718064556	0	0.9399999999999999	0	76.74322336192584	-15.06511203174635	-4.008537598643982	67.30545477392155	1.174701790357067	0	0	0	73.73989961470667	-5.368741302851832	-10.74139826484825	63.65359157933137	1.11096475377907	0	0	0	0	0	0	37.33912985850643	-37.33912985850643	4.866751260165033	85.33324605084232	85.13324900995774	0	0	37.33912985850643	-37.33912985850643	4.866751260165033	85.33324605084232	85.13324900993477	0	0
13.3199999999998	-9.795262999005207	-5.913493696703451	40.96268903023406	0	0.9399999999999999	0	76.91351811304358	-15.07253343395413	-3.900257962813608	67.30627868291695	1.174716170281773	0	0	0	73.95919506922216	-5.359827165906783	-10.72620278106697	63.66824343141862	1.111220476839508	0	0	0	0	0	0	37.33975133916363	-37.33975133916363	4.866772772910967	85.33319224840807	85.13322749721256	0	0	37.33975133916363	-37.33975133916363	4.866772772910967	85.33319224840807	85.13322749718959	0	0
13.3399999999998	-10.26348757066587	-6.274102613698772	40.9280693703674	0	0.9399999999999999	0	77.49456119669216	-15.09175268835033	-3.87536362571434	67.30318058701509	1.174662098307743	0	0	0	74.49616792098882	-5.327461487233887	-10.72063797116499	63.65353689504812	1.110963799358278	0	0	0	0	0	0	37.34033209210664	-37.34033209210664	4.866792590721857	85.33314268495346	85.13320767940232	0	0	37.34033209210664	-37.34033209210664	4.866792590721857	85.33314268495346	85.13320767937935	0	0
13.3599999999998	-10.8555208137511	-6.694262489918374	40.87350657107955	0	0.9399999999999999	0	78.23735438160618	-15.11553641467132	-3.798266211302937	67.33815329308474	1.175272487176991	0	0	0	75.15632863120413	-5.268281680807549	-10.75970792988289	63.64948556841127	1.110893090369391	0	0	0	0	0	0	37.34118330013703	-37.34118330013703	4.866821853995104	85.33306949880583	85.13317841613012	0	0	37.34118330013703	-37.34118330013703	4.866821853995104	85.33306949880583	85.13317841610716	0	0
13.3799999999998	-11.50220131977889	-7.127555983668389	40.810854515623	0	0.9399999999999999	0	78.81589509984489	-15.1278297565692	-3.49410597798043	67.27483159759001	1.174167315102663	0	0	0	75.83990100361352	-5.230504813627934	-10.76368134562382	63.61812609935195	1.110345764382629	0	0	0	0	0	0	37.34182504227339	-37.34182504227339	4.866844009075563	85.33301408992604	85.13315626105042	0	0	37.34182504227339	-37.34182504227339	4.866844009075563	85.33301408992604	85.13315626102745	0	0
13.3999999999998	-12.22747239657794	-7.610053595377337	40.73352476154216	0	0.9399999999999999	0	79.68737169000595	-15.16368893881495	-3.399069226031553	67.23449413806155	1.173463293622001	0	0	0	76.59927109585134	-5.170447614596931	-10.80322102700537	63.58130071686438	1.109703040209914	0	0	0	0	0	0	37.34240902567657	-37.34240902567657	4.866863937626672	85.33296424951546	85.13313633250006	0	0	37.34240902567657	-37.34240902567657	4.866863937626672	85.33296424951546	85.13313633247709	0	0
13.4199999999998	-13.08323955812425	-8.179085286908951	40.67561745222815	0	0.9399999999999999	0	80.51812782181315	-15.17119927831946	-3.15052673097244	67.15928163042918	1.172150587725135	0	0	0	77.50731374141893	-5.04734352330252	-10.85673163673195	63.53812502593556	1.108949482246383	0	0	0	0	0	0	37.34312531755838	-37.34312531755838	4.866888656370456	85.3329024290276	85.13311161375712	0	0	37.34312531755838	-37.34312531755838	4.866888656370456	85.3329024290276	85.13311161373416	0	0
